<?xml version="1.0" encoding="UTF-8"?><svg xmlns="http://www.w3.org/2000/svg" width="830" height="336" version="1.0" shape-rendering="geometricPrecision"><defs><style type="text/css">@font-face {
  font-family: sans-serif;
}</style><filter id="shadowBlur" x="0" y="0" width="200%" height="200%"><feOffset in="SourceGraphic" dx="3.0003002" dy="3.0003002" result="offOut"></feOffset><feGaussianBlur in="offOut" stdDeviation="3"></feGaussianBlur></filter></defs><g stroke-width="1" stroke-linecap="square" stroke-linejoin="round"><rect x="0" y="0" width="830" height="336" style="fill: #ffffff"></rect><path stroke="#969696" fill="#969696" filter="url(#shadowBlur)" d="M455.0 245.0 L455.0 301.0 L805.0 301.0 L805.0 245.0 z"></path><path stroke="#969696" fill="#969696" filter="url(#shadowBlur)" d="M25.0 175.0 L25.0 231.0 L345.0 231.0 L345.0 175.0 z"></path><path stroke="#969696" fill="#969696" filter="url(#shadowBlur)" d="M685.0 105.0 L685.0 161.0 L455.0 161.0 L455.0 105.0 z"></path><path stroke="#969696" fill="#969696" filter="url(#shadowBlur)" d="M255.0 91.0 L255.0 35.0 L35.0 35.0 L35.0 91.0 z"></path><path stroke="#000000" stroke-width="1.0" stroke-linecap="round" stroke-linejoin="round" fill="white" d="M455.0 245.0 L455.0 301.0 L805.0 301.0 L805.0 245.0 z"></path><path stroke="#000000" stroke-width="1.0" stroke-linecap="round" stroke-linejoin="round" fill="white" d="M25.0 175.0 L25.0 231.0 L345.0 231.0 L345.0 175.0 z"></path><path stroke="#000000" stroke-width="1.0" stroke-linecap="round" stroke-linejoin="round" fill="white" d="M685.0 105.0 L685.0 161.0 L455.0 161.0 L455.0 105.0 z"></path><path stroke="#000000" stroke-width="1.0" stroke-linecap="round" stroke-linejoin="round" fill="white" d="M255.0 91.0 L255.0 35.0 L35.0 35.0 L35.0 91.0 z"></path><path stroke="#000000" stroke-width="1.0" stroke-linecap="round" stroke-linejoin="round" fill="none" d="M315.0 175.0 L315.0 119.0 L445.0 119.0 "></path><path stroke="#000000" stroke-width="1.0" stroke-linecap="round" stroke-linejoin="round" fill="none" d="M255.0 63.0 L485.0 63.0 L485.0 91.0 "></path><path stroke="#000000" stroke-width="1.0" stroke-linecap="round" stroke-linejoin="round" fill="none" d="M445.0 287.0 L315.0 287.0 L315.0 245.0 "></path><path stroke="none" stroke-width="1.0" stroke-linecap="round" stroke-linejoin="round" fill="#000000" d="M480.0 84.0 L485.0 98.0 L490.0 84.0 z"></path><path stroke="none" stroke-width="1.0" stroke-linecap="round" stroke-linejoin="round" fill="#000000" d="M440.0 112.0 L450.0 119.0 L440.0 126.0 z"></path><path stroke="none" stroke-width="1.0" stroke-linecap="round" stroke-linejoin="round" fill="#000000" d="M315.0 238.0 L310.0 252.0 L320.0 252.0 z"></path><path stroke="none" stroke-width="1.0" stroke-linecap="round" stroke-linejoin="round" fill="#000000" d="M440.0 280.0 L450.0 287.0 L440.0 294.0 z"></path><path stroke="#000000" stroke-width="1.0" stroke-linecap="round" stroke-linejoin="round" fill="none" d="M660.0 273.0 L669.0 273.0 "></path><path stroke="#000000" stroke-width="1.0" stroke-linecap="round" stroke-linejoin="round" fill="none" d="M260.0 203.0 L269.0 203.0 "></path><path stroke="#000000" stroke-width="1.0" stroke-linecap="round" stroke-linejoin="round" fill="none" d="M700.0 273.0 L709.0 273.0 "></path><path stroke="#000000" stroke-width="1.0" stroke-linecap="round" stroke-linejoin="round" fill="none" d="M290.0 203.0 L299.0 203.0 "></path><path stroke="#000000" stroke-width="1.0" stroke-linecap="round" stroke-linejoin="round" fill="none" d="M750.0 273.0 L759.0 273.0 "></path><text x="329" y="54" font-family="sans-serif" font-size="15" stroke="none" fill="#000000"><![CDATA[Credentials]]></text><text x="500" y="278" font-family="sans-serif" font-size="15" stroke="none" fill="#000000"><![CDATA[Resource Server lab jee rest api]]></text><text x="75" y="208" font-family="sans-serif" font-size="15" stroke="none" fill="#000000"><![CDATA[Client(javascript) lab js app]]></text><text x="482" y="138" font-family="sans-serif" font-size="15" stroke="none" fill="#000000"><![CDATA[Auth Server Keycloak]]></text><text x="330" y="138" font-family="sans-serif" font-size="15" stroke="none" fill="#000000"><![CDATA[AuthCode]]></text><text x="330" y="152" font-family="sans-serif" font-size="15" stroke="none" fill="#000000"><![CDATA[Token]]></text><text x="332" y="264" font-family="sans-serif" font-size="15" stroke="none" fill="#000000"><![CDATA[Resource]]></text><text x="56" y="68" font-family="sans-serif" font-size="15" stroke="none" fill="#000000"><![CDATA[Resource Owner Nerd]]></text></g></svg>