<?xml version="1.0" encoding="UTF-8"?><svg xmlns="http://www.w3.org/2000/svg" width="620" height="294" version="1.0" shape-rendering="geometricPrecision"><defs><style type="text/css">@font-face {
  font-family: sans-serif;
}</style><filter id="shadowBlur" x="0" y="0" width="200%" height="200%"><feOffset in="SourceGraphic" dx="3.0003002" dy="3.0003002" result="offOut"></feOffset><feGaussianBlur in="offOut" stdDeviation="3"></feGaussianBlur></filter></defs><g stroke-width="1" stroke-linecap="square" stroke-linejoin="round"><rect x="0" y="0" width="620" height="294" style="fill: #ffffff"></rect><path stroke="#969696" fill="#969696" filter="url(#shadowBlur)" d="M115.0 259.0 L115.0 35.0 L25.0 35.0 L25.0 259.0 z"></path><path stroke="#969696" fill="#969696" filter="url(#shadowBlur)" d="M435.0 175.0 L595.0 175.0 L595.0 119.0 L435.0 119.0 z"></path><path stroke="#969696" fill="#969696" filter="url(#shadowBlur)" d="M595.0 35.0 L595.0 91.0 L435.0 91.0 L435.0 35.0 z"></path><path stroke="#969696" fill="#969696" filter="url(#shadowBlur)" d="M595.0 203.0 L595.0 259.0 L435.0 259.0 L435.0 203.0 z"></path><path stroke="#000000" stroke-width="1.0" stroke-linecap="round" stroke-linejoin="round" fill="white" d="M115.0 259.0 L115.0 35.0 L25.0 35.0 L25.0 259.0 z"></path><path stroke="#000000" stroke-width="1.0" stroke-linecap="round" stroke-linejoin="round" fill="white" d="M435.0 175.0 L595.0 175.0 L595.0 119.0 L435.0 119.0 z"></path><path stroke="#000000" stroke-width="1.0" stroke-linecap="round" stroke-linejoin="round" fill="white" d="M595.0 35.0 L595.0 91.0 L435.0 91.0 L435.0 35.0 z"></path><path stroke="#000000" stroke-width="1.0" stroke-linecap="round" stroke-linejoin="round" fill="white" d="M595.0 203.0 L595.0 259.0 L435.0 259.0 L435.0 203.0 z"></path><path stroke="none" stroke-width="1.0" stroke-linecap="round" stroke-linejoin="round" fill="#000000" d="M420.0 42.0 L430.0 49.0 L420.0 56.0 z"></path><path stroke="none" stroke-width="1.0" stroke-linecap="round" stroke-linejoin="round" fill="#000000" d="M130.0 70.0 L120.0 77.0 L130.0 84.0 z"></path><path stroke="none" stroke-width="1.0" stroke-linecap="round" stroke-linejoin="round" fill="#000000" d="M420.0 126.0 L430.0 133.0 L420.0 140.0 z"></path><path stroke="none" stroke-width="1.0" stroke-linecap="round" stroke-linejoin="round" fill="#000000" d="M130.0 154.0 L120.0 161.0 L130.0 168.0 z"></path><path stroke="none" stroke-width="1.0" stroke-linecap="round" stroke-linejoin="round" fill="#000000" d="M420.0 210.0 L430.0 217.0 L420.0 224.0 z"></path><path stroke="none" stroke-width="1.0" stroke-linecap="round" stroke-linejoin="round" fill="#000000" d="M130.0 238.0 L120.0 245.0 L130.0 252.0 z"></path><path stroke="#000000" stroke-width="1.0" stroke-linecap="round" stroke-linejoin="round" fill="none" d="M125.0 77.0 L139.0 77.0 "></path><path stroke="#000000" stroke-width="1.0" stroke-linecap="round" stroke-linejoin="round" fill="none" d="M125.0 161.0 L139.0 161.0 "></path><path stroke="#000000" stroke-width="1.0" stroke-linecap="round" stroke-linejoin="round" fill="none" d="M125.0 245.0 L139.0 245.0 "></path><path stroke="#000000" stroke-width="1.0" stroke-linecap="round" stroke-linejoin="round" fill="none" d="M170.0 49.0 L179.0 49.0 "></path><path stroke="#000000" stroke-width="1.0" stroke-linecap="round" stroke-linejoin="round" fill="none" d="M410.0 49.0 L425.0 49.0 "></path><path stroke="#000000" stroke-width="1.0" stroke-linecap="round" stroke-linejoin="round" fill="none" d="M215.0 161.0 L175.0 161.0 "></path><path stroke="#000000" stroke-width="1.0" stroke-linecap="round" stroke-linejoin="round" fill="none" d="M215.0 217.0 L175.0 217.0 "></path><path stroke="#000000" stroke-width="1.0" stroke-linecap="round" stroke-linejoin="round" fill="none" d="M135.0 49.0 L125.0 49.0 "></path><path stroke="#000000" stroke-width="1.0" stroke-linecap="round" stroke-linejoin="round" fill="none" d="M135.0 133.0 L125.0 133.0 "></path><path stroke="#000000" stroke-width="1.0" stroke-linecap="round" stroke-linejoin="round" fill="none" d="M135.0 217.0 L125.0 217.0 "></path><path stroke="#000000" stroke-width="1.0" stroke-linecap="round" stroke-linejoin="round" fill="none" d="M425.0 161.0 L365.0 161.0 "></path><path stroke="#000000" stroke-width="1.0" stroke-linecap="round" stroke-linejoin="round" fill="none" d="M425.0 217.0 L365.0 217.0 "></path><path stroke="#000000" stroke-width="1.0" stroke-linecap="round" stroke-linejoin="round" fill="none" d="M185.0 77.0 L175.0 77.0 "></path><path stroke="#000000" stroke-width="1.0" stroke-linecap="round" stroke-linejoin="round" fill="none" d="M185.0 133.0 L175.0 133.0 "></path><path stroke="#000000" stroke-width="1.0" stroke-linecap="round" stroke-linejoin="round" fill="none" d="M175.0 245.0 L195.0 245.0 "></path><path stroke="#000000" stroke-width="1.0" stroke-linecap="round" stroke-linejoin="round" fill="none" d="M425.0 77.0 L405.0 77.0 "></path><path stroke="#000000" stroke-width="1.0" stroke-linecap="round" stroke-linejoin="round" fill="none" d="M425.0 133.0 L405.0 133.0 "></path><path stroke="#000000" stroke-width="1.0" stroke-linecap="round" stroke-linejoin="round" fill="none" d="M425.0 245.0 L405.0 245.0 "></path><text x="143" y="250" font-family="sans-serif" font-size="15" stroke="none" fill="#000000"><![CDATA[(F)]]></text><text x="205" y="54" font-family="sans-serif" font-size="15" stroke="none" fill="#000000"><![CDATA[Authorization Request]]></text><text x="47" y="152" font-family="sans-serif" font-size="15" stroke="none" fill="#000000"><![CDATA[Client]]></text><text x="215" y="82" font-family="sans-serif" font-size="15" stroke="none" fill="#000000"><![CDATA[Authorization Grant]]></text><text x="215" y="138" font-family="sans-serif" font-size="15" stroke="none" fill="#000000"><![CDATA[Authorization Grant]]></text><text x="234" y="166" font-family="sans-serif" font-size="15" stroke="none" fill="#000000"><![CDATA[Access Token]]></text><text x="234" y="222" font-family="sans-serif" font-size="15" stroke="none" fill="#000000"><![CDATA[Access Token]]></text><text x="219" y="250" font-family="sans-serif" font-size="15" stroke="none" fill="#000000"><![CDATA[Protected Resource]]></text><text x="472" y="54" font-family="sans-serif" font-size="15" stroke="none" fill="#000000"><![CDATA[Resource]]></text><text x="492" y="68" font-family="sans-serif" font-size="13" stroke="none" fill="#000000"><![CDATA[Owner]]></text><text x="461" y="138" font-family="sans-serif" font-size="15" stroke="none" fill="#000000"><![CDATA[Authorization]]></text><text x="493" y="152" font-family="sans-serif" font-size="15" stroke="none" fill="#000000"><![CDATA[Server]]></text><text x="482" y="222" font-family="sans-serif" font-size="15" stroke="none" fill="#000000"><![CDATA[Resource]]></text><text x="493" y="236" font-family="sans-serif" font-size="15" stroke="none" fill="#000000"><![CDATA[Server]]></text><text x="143" y="54" font-family="sans-serif" font-size="15" stroke="none" fill="#000000"><![CDATA[(A)]]></text><text x="143" y="82" font-family="sans-serif" font-size="15" stroke="none" fill="#000000"><![CDATA[(B)]]></text><text x="143" y="138" font-family="sans-serif" font-size="15" stroke="none" fill="#000000"><![CDATA[(C)]]></text><text x="142" y="166" font-family="sans-serif" font-size="15" stroke="none" fill="#000000"><![CDATA[(D)]]></text><text x="143" y="222" font-family="sans-serif" font-size="15" stroke="none" fill="#000000"><![CDATA[(E)]]></text></g></svg>