<?xml version="1.0" encoding="UTF-8"?><svg xmlns="http://www.w3.org/2000/svg" width="590" height="308" version="1.0" shape-rendering="geometricPrecision"><defs><style type="text/css">@font-face {
  font-family: sans-serif;
}</style><filter id="shadowBlur" x="0" y="0" width="200%" height="200%"><feOffset in="SourceGraphic" dx="3.0003002" dy="3.0003002" result="offOut"></feOffset><feGaussianBlur in="offOut" stdDeviation="3"></feGaussianBlur></filter></defs><g stroke-width="1" stroke-linecap="square" stroke-linejoin="round"><rect x="0" y="0" width="590" height="308" style="fill: #ffffff"></rect><path stroke="#969696" fill="#969696" filter="url(#shadowBlur)" d="M565.0 273.0 L565.0 35.0 L475.0 35.0 L475.0 273.0 z"></path><path stroke="#969696" fill="#969696" filter="url(#shadowBlur)" d="M115.0 273.0 L115.0 35.0 L25.0 35.0 L25.0 273.0 z"></path><path stroke="#969696" fill="#969696" filter="url(#shadowBlur)" d="M235.0 91.0 L235.0 161.0 L145.0 161.0 L145.0 91.0 z"></path><path stroke="#000000" stroke-width="1.0" stroke-linecap="round" stroke-linejoin="round" fill="white" d="M565.0 273.0 L565.0 35.0 L475.0 35.0 L475.0 273.0 z"></path><path stroke="#000000" stroke-width="1.0" stroke-linecap="round" stroke-linejoin="round" fill="white" d="M115.0 273.0 L115.0 35.0 L25.0 35.0 L25.0 273.0 z"></path><path stroke="#000000" stroke-width="1.0" stroke-linecap="round" stroke-linejoin="round" fill="white" d="M235.0 91.0 L235.0 161.0 L145.0 161.0 L145.0 91.0 z"></path><path stroke="none" stroke-width="1.0" stroke-linecap="round" stroke-linejoin="round" fill="#000000" d="M460.0 56.0 L470.0 63.0 L460.0 70.0 z"></path><path stroke="none" stroke-width="1.0" stroke-linecap="round" stroke-linejoin="round" fill="#000000" d="M250.0 112.0 L240.0 119.0 L250.0 126.0 z"></path><path stroke="none" stroke-width="1.0" stroke-linecap="round" stroke-linejoin="round" fill="#000000" d="M460.0 112.0 L470.0 119.0 L460.0 126.0 z"></path><path stroke="none" stroke-width="1.0" stroke-linecap="round" stroke-linejoin="round" fill="#000000" d="M130.0 182.0 L120.0 189.0 L130.0 196.0 z"></path><path stroke="none" stroke-width="1.0" stroke-linecap="round" stroke-linejoin="round" fill="#000000" d="M460.0 210.0 L470.0 217.0 L460.0 224.0 z"></path><path stroke="none" stroke-width="1.0" stroke-linecap="round" stroke-linejoin="round" fill="#000000" d="M130.0 238.0 L120.0 245.0 L130.0 252.0 z"></path><path stroke="#000000" stroke-width="1.0" stroke-linecap="round" stroke-linejoin="round" fill="none" d="M200.0 119.0 L209.0 119.0 "></path><path stroke="#000000" stroke-width="1.0" stroke-linecap="round" stroke-linejoin="round" fill="none" d="M395.0 189.0 L465.0 189.0 "></path><path stroke="#000000" stroke-width="1.0" stroke-linecap="round" stroke-linejoin="round" fill="none" d="M465.0 63.0 L385.0 63.0 "></path><path stroke="#000000" stroke-width="1.0" stroke-linecap="round" stroke-linejoin="round" fill="none" d="M465.0 217.0 L415.0 217.0 "></path><path stroke="#000000" stroke-width="1.0" stroke-linecap="round" stroke-linejoin="round" fill="none" d="M465.0 245.0 L425.0 245.0 "></path><path stroke="#000000" stroke-width="1.0" stroke-linecap="round" stroke-linejoin="round" fill="none" d="M465.0 119.0 L445.0 119.0 "></path><path stroke="#000000" stroke-width="1.0" stroke-linecap="round" stroke-linejoin="round" fill="none" d="M205.0 63.0 L125.0 63.0 "></path><path stroke="#000000" stroke-width="1.0" stroke-linecap="round" stroke-linejoin="round" fill="none" d="M125.0 217.0 L205.0 217.0 "></path><path stroke="#000000" stroke-width="1.0" stroke-linecap="round" stroke-linejoin="round" fill="none" d="M125.0 189.0 L205.0 189.0 "></path><path stroke="#000000" stroke-width="1.0" stroke-linecap="round" stroke-linejoin="round" fill="none" d="M125.0 245.0 L205.0 245.0 "></path><path stroke="#000000" stroke-width="1.0" stroke-linecap="round" stroke-linejoin="round" fill="none" d="M265.0 119.0 L245.0 119.0 "></path><text x="220" y="68" font-family="sans-serif" font-size="15" stroke="none" fill="#000000"><![CDATA[(1) AuthN Request]]></text><text x="279" y="124" font-family="sans-serif" font-size="15" stroke="none" fill="#000000"><![CDATA[(2) AuthN & AuthZ]]></text><text x="223" y="250" font-family="sans-serif" font-size="15" stroke="none" fill="#000000"><![CDATA[(5) UserInfo Response]]></text><text x="219" y="194" font-family="sans-serif" font-size="15" stroke="none" fill="#000000"><![CDATA[(3) AuthN Response]]></text><text x="224" y="222" font-family="sans-serif" font-size="15" stroke="none" fill="#000000"><![CDATA[(4) UserInfo Request]]></text><text x="170" y="124" font-family="sans-serif" font-size="15" stroke="none" fill="#000000"><![CDATA[End]]></text><text x="170" y="138" font-family="sans-serif" font-size="15" stroke="none" fill="#000000"><![CDATA[User]]></text><text x="510" y="151" font-family="sans-serif" font-size="12" stroke="none" fill="#000000"><![CDATA[OP]]></text><text x="60" y="152" font-family="sans-serif" font-size="14" stroke="none" fill="#000000"><![CDATA[RP]]></text></g></svg>