<?xml version="1.0" encoding="UTF-8"?><svg xmlns="http://www.w3.org/2000/svg" width="690" height="392" version="1.0" shape-rendering="geometricPrecision"><defs><style type="text/css">@font-face {
  font-family: sans-serif;
}</style><filter id="shadowBlur" x="0" y="0" width="200%" height="200%"><feOffset in="SourceGraphic" dx="3.0003002" dy="3.0003002" result="offOut"></feOffset><feGaussianBlur in="offOut" stdDeviation="3"></feGaussianBlur></filter></defs><g stroke-width="1" stroke-linecap="square" stroke-linejoin="round"><rect x="0" y="0" width="690" height="392" style="fill: #ffffff"></rect><path stroke="#969696" fill="#969696" filter="url(#shadowBlur)" d="M335.0 301.0 L335.0 357.0 L25.0 357.0 L25.0 301.0 z"></path><path stroke="#969696" fill="#969696" filter="url(#shadowBlur)" d="M325.0 189.0 L325.0 245.0 L25.0 245.0 L25.0 189.0 z"></path><path stroke="#969696" fill="#969696" filter="url(#shadowBlur)" d="M665.0 119.0 L665.0 175.0 L435.0 175.0 L435.0 119.0 z"></path><path stroke="#969696" fill="#969696" filter="url(#shadowBlur)" d="M245.0 91.0 L245.0 35.0 L25.0 35.0 L25.0 91.0 z"></path><path stroke="#000000" stroke-width="1.0" stroke-linecap="round" stroke-linejoin="round" fill="white" d="M335.0 301.0 L335.0 357.0 L25.0 357.0 L25.0 301.0 z"></path><path stroke="#000000" stroke-width="1.0" stroke-linecap="round" stroke-linejoin="round" fill="white" d="M325.0 189.0 L325.0 245.0 L25.0 245.0 L25.0 189.0 z"></path><path stroke="#000000" stroke-width="1.0" stroke-linecap="round" stroke-linejoin="round" fill="white" d="M665.0 119.0 L665.0 175.0 L435.0 175.0 L435.0 119.0 z"></path><path stroke="#000000" stroke-width="1.0" stroke-linecap="round" stroke-linejoin="round" fill="white" d="M245.0 91.0 L245.0 35.0 L25.0 35.0 L25.0 91.0 z"></path><path stroke="#000000" stroke-width="1.0" stroke-linecap="round" stroke-linejoin="round" fill="none" d="M245.0 77.0 L455.0 77.0 L455.0 105.0 "></path><path stroke="#000000" stroke-width="1.0" stroke-linecap="round" stroke-linejoin="round" fill="none" d="M425.0 133.0 L295.0 133.0 L295.0 175.0 "></path><path stroke="none" stroke-width="1.0" stroke-linecap="round" stroke-linejoin="round" fill="#000000" d="M450.0 98.0 L455.0 112.0 L460.0 98.0 z"></path><path stroke="none" stroke-width="1.0" stroke-linecap="round" stroke-linejoin="round" fill="#000000" d="M420.0 126.0 L430.0 133.0 L420.0 140.0 z"></path><path stroke="none" stroke-width="1.0" stroke-linecap="round" stroke-linejoin="round" fill="#000000" d="M290.0 168.0 L295.0 182.0 L300.0 168.0 z"></path><path stroke="none" stroke-width="1.0" stroke-linecap="round" stroke-linejoin="round" fill="#000000" d="M160.0 280.0 L165.0 294.0 L170.0 280.0 z"></path><path stroke="#000000" stroke-width="1.0" stroke-linecap="round" stroke-linejoin="round" fill="none" d="M260.0 273.0 L269.0 273.0 "></path><path stroke="#000000" stroke-width="1.0" stroke-linecap="round" stroke-linejoin="round" fill="none" d="M200.0 217.0 L209.0 217.0 "></path><path stroke="#000000" stroke-width="1.0" stroke-linecap="round" stroke-linejoin="round" fill="none" d="M165.0 245.0 L165.0 287.0 "></path><text x="309" y="54" font-family="sans-serif" font-size="15" stroke="none" fill="#000000"><![CDATA[Credentials]]></text><text x="60" y="222" font-family="sans-serif" font-size="15" stroke="none" fill="#000000"><![CDATA[Client(cURL) lab gatekeeper]]></text><text x="65" y="334" font-family="sans-serif" font-size="15" stroke="none" fill="#000000"><![CDATA[Standard application httpbin]]></text><text x="310" y="152" font-family="sans-serif" font-size="15" stroke="none" fill="#000000"><![CDATA[AuthCode]]></text><text x="310" y="166" font-family="sans-serif" font-size="15" stroke="none" fill="#000000"><![CDATA[Token]]></text><text x="462" y="152" font-family="sans-serif" font-size="15" stroke="none" fill="#000000"><![CDATA[Auth Server Keycloak]]></text><text x="186" y="278" font-family="sans-serif" font-size="15" stroke="none" fill="#000000"><![CDATA[upstream forward]]></text><text x="46" y="68" font-family="sans-serif" font-size="15" stroke="none" fill="#000000"><![CDATA[Resource Owner Nerd]]></text></g></svg>