<?xml version="1.0" encoding="UTF-8"?><svg xmlns="http://www.w3.org/2000/svg" width="940" height="336" version="1.0" shape-rendering="geometricPrecision"><defs><style type="text/css">@font-face {
  font-family: sans-serif;
}</style><filter id="shadowBlur" x="0" y="0" width="200%" height="200%"><feOffset in="SourceGraphic" dx="3.0003002" dy="3.0003002" result="offOut"></feOffset><feGaussianBlur in="offOut" stdDeviation="3"></feGaussianBlur></filter></defs><g stroke-width="1" stroke-linecap="square" stroke-linejoin="round"><rect x="0" y="0" width="940" height="336" style="fill: #ffffff"></rect><path stroke="#969696" fill="#969696" filter="url(#shadowBlur)" d="M25.0 175.0 L25.0 231.0 L425.0 231.0 L425.0 175.0 z"></path><path stroke="#969696" fill="#969696" filter="url(#shadowBlur)" d="M535.0 301.0 L535.0 245.0 L915.0 245.0 L915.0 301.0 z"></path><path stroke="#969696" fill="#969696" filter="url(#shadowBlur)" d="M765.0 105.0 L765.0 161.0 L535.0 161.0 L535.0 105.0 z"></path><path stroke="#969696" fill="#969696" filter="url(#shadowBlur)" d="M345.0 35.0 L345.0 91.0 L125.0 91.0 L125.0 35.0 z"></path><path stroke="#000000" stroke-width="1.0" stroke-linecap="round" stroke-linejoin="round" fill="white" d="M25.0 175.0 L25.0 231.0 L425.0 231.0 L425.0 175.0 z"></path><path stroke="#000000" stroke-width="1.0" stroke-linecap="round" stroke-linejoin="round" fill="white" d="M535.0 301.0 L535.0 245.0 L915.0 245.0 L915.0 301.0 z"></path><path stroke="#000000" stroke-width="1.0" stroke-linecap="round" stroke-linejoin="round" fill="white" d="M765.0 105.0 L765.0 161.0 L535.0 161.0 L535.0 105.0 z"></path><path stroke="#000000" stroke-width="1.0" stroke-linecap="round" stroke-linejoin="round" fill="white" d="M345.0 35.0 L345.0 91.0 L125.0 91.0 L125.0 35.0 z"></path><path stroke="#000000" stroke-width="1.0" stroke-linecap="round" stroke-linejoin="round" fill="none" d="M395.0 161.0 L395.0 119.0 L525.0 119.0 "></path><path stroke="#000000" stroke-width="1.0" stroke-linecap="round" stroke-linejoin="round" fill="none" d="M525.0 287.0 L395.0 287.0 L395.0 245.0 "></path><path stroke="none" stroke-width="1.0" stroke-linecap="round" stroke-linejoin="round" fill="#000000" d="M520.0 112.0 L530.0 119.0 L520.0 126.0 z"></path><path stroke="none" stroke-width="1.0" stroke-linecap="round" stroke-linejoin="round" fill="#000000" d="M230.0 154.0 L235.0 168.0 L240.0 154.0 z"></path><path stroke="none" stroke-width="1.0" stroke-linecap="round" stroke-linejoin="round" fill="#000000" d="M390.0 154.0 L395.0 168.0 L400.0 154.0 z"></path><path stroke="none" stroke-width="1.0" stroke-linecap="round" stroke-linejoin="round" fill="#000000" d="M395.0 238.0 L390.0 252.0 L400.0 252.0 z"></path><path stroke="none" stroke-width="1.0" stroke-linecap="round" stroke-linejoin="round" fill="#000000" d="M520.0 280.0 L530.0 287.0 L520.0 294.0 z"></path><path stroke="#000000" stroke-width="1.0" stroke-linecap="round" stroke-linejoin="round" fill="none" d="M235.0 91.0 L235.0 161.0 "></path><text x="410" y="152" font-family="sans-serif" font-size="15" stroke="none" fill="#000000"><![CDATA[Token]]></text><text x="570" y="278" font-family="sans-serif" font-size="15" stroke="none" fill="#000000"><![CDATA[Resource Server lab+spring+rest+api]]></text><text x="73" y="208" font-family="sans-serif" font-size="15" stroke="none" fill="#000000"><![CDATA[Client(cURL) techlab+cli+confidential]]></text><text x="562" y="138" font-family="sans-serif" font-size="15" stroke="none" fill="#000000"><![CDATA[Auth Server Keycloak]]></text><text x="259" y="138" font-family="sans-serif" font-size="15" stroke="none" fill="#000000"><![CDATA[Credentials]]></text><text x="412" y="264" font-family="sans-serif" font-size="15" stroke="none" fill="#000000"><![CDATA[Resource]]></text><text x="146" y="68" font-family="sans-serif" font-size="15" stroke="none" fill="#000000"><![CDATA[Resource Owner Nerd]]></text></g></svg>